<?xml version="1.0" encoding="UTF-8" standalone="no"?>
<!-- Generator: Adobe Illustrator 19.1.0, SVG Export Plug-In . SVG Version: 6.00 Build 0)  -->

<svg
   version="1.1"
   id="Layer_1"
   x="0px"
   y="0px"
   viewBox="0 0 250 250"
   style="enable-background:new 0 0 250 250;"
   xml:space="preserve"
   sodipodi:docname="angular_django.svg"
   inkscape:version="1.1 (c4e8f9ed74, 2021-05-24)"
   xmlns:inkscape="http://www.inkscape.org/namespaces/inkscape"
   xmlns:sodipodi="http://sodipodi.sourceforge.net/DTD/sodipodi-0.dtd"
   xmlns="http://www.w3.org/2000/svg"
   xmlns:svg="http://www.w3.org/2000/svg"><defs
   id="defs15" /><sodipodi:namedview
   id="namedview13"
   pagecolor="#ffffff"
   bordercolor="#666666"
   borderopacity="1.0"
   inkscape:pageshadow="2"
   inkscape:pageopacity="0.0"
   inkscape:pagecheckerboard="0"
   showgrid="false"
   inkscape:zoom="1.718"
   inkscape:cx="92.25844"
   inkscape:cy="117.57858"
   inkscape:window-width="1920"
   inkscape:window-height="1019"
   inkscape:window-x="3840"
   inkscape:window-y="0"
   inkscape:window-maximized="1"
   inkscape:current-layer="g10" />
<style
   type="text/css"
   id="style2">
	.st0{fill:#DD0031;}
	.st1{fill:#C3002F;}
	.st2{fill:#FFFFFF;}
</style>
<g
   id="g10">
	<polygon
   class="st0"
   points="125,30 125,30 125,30 31.9,63.2 46.1,186.3 125,230 125,230 125,230 203.9,186.3 218.1,63.2  "
   id="polygon4" />
	<polygon
   class="st1"
   points="125,30 125,52.2 125,52.1 125,153.4 125,153.4 125,230 125,230 203.9,186.3 218.1,63.2 125,30  "
   id="polygon6" />
	
<g
   fill="#2ba977"
   id="g6"
   transform="matrix(0.42369282,0,0,0.42369282,65.403768,61.649192)"
   style="fill:#ffffff"><path
     d="m 114.784,0 h 53.278 v 244.191 c -27.29,5.162 -47.38,7.193 -69.117,7.193 C 33.873,251.316 0,222.245 0,166.412 0,112.617 35.93,77.704 91.608,77.704 c 8.64,0 15.222,0.68 23.176,2.717 z m 1.867,124.427 c -6.24,-2.038 -11.382,-2.717 -17.965,-2.717 -26.947,0 -42.512,16.437 -42.512,45.243 0,28.046 14.88,43.532 42.17,43.532 5.896,0 10.696,-0.332 18.307,-1.351 z"
     id="path2"
     style="fill:#ffffff" /><path
     d="m 255.187,84.26 v 122.263 c 0,42.105 -3.154,62.353 -12.411,79.81 -8.64,16.783 -20.022,27.366 -43.541,39.055 l -49.438,-23.297 c 23.519,-10.93 34.901,-20.588 42.17,-35.327 7.61,-15.072 10.01,-32.529 10.01,-78.445 V 84.261 h 53.21 z M 196.608,0 h 53.278 v 54.135 h -53.278 z"
     id="path4"
     style="fill:#ffffff" /></g></g>
</svg>
